<svg width="25" height="24" viewBox="0 0 25 24" fill="none" xmlns="http://www.w3.org/2000/svg">
<path d="M14.7071 12.7071L17.3552 15.3552C17.7113 15.7113 17.7113 16.2887 17.3552 16.6448C15.43 18.57 12.3821 18.7866 10.204 17.153L8.62857 15.9714C6.88504 14.6638 5.33622 13.115 4.02857 11.3714L2.84701 9.79601C1.21341 7.61788 1.43001 4.56999 3.35523 2.64477C3.71133 2.28867 4.28867 2.28867 4.64477 2.64477L7.29289 5.29289C7.68342 5.68342 7.68342 6.31658 7.29289 6.70711L6.27175 7.72825C6.10946 7.89054 6.06923 8.13846 6.17187 8.34373C7.35853 10.7171 9.28294 12.6415 11.6563 13.8281C11.8615 13.9308 12.1095 13.8905 12.2717 13.7283L13.2929 12.7071C13.6834 12.3166 14.3166 12.3166 14.7071 12.7071Z" stroke="white" stroke-width="2"/>
</svg>
